HIERARCHY
ROOT Pelvis
{
	OFFSET 0.000000 0.000000 0.000000
	CHANNELS 6 Xposition Yposition Zposition Xrotation Yrotation Zrotation
	JOINT LeftUpLeg_virtual
	{
		OFFSET 0.000000 0.000000 0.000000
		CHANNELS 3 Xrotation Yrotation Zrotation
		JOINT LeftUpLeg
		{
			OFFSET 8.479700 -4.795502 -0.379100
			CHANNELS 3 Xrotation Yrotation Zrotation
			JOINT LeftLeg
			{
				OFFSET 0.024144 -32.555107 0.112900
				CHANNELS 3 Xrotation Yrotation Zrotation
				JOINT LeftFoot
				{
					OFFSET -0.024144 -32.638630 -3.012600
					CHANNELS 3 Xrotation Yrotation Zrotation
					JOINT LeftToeBase
					{
						OFFSET 0.970200 -13.225400 11.864200
						CHANNELS 3 Xrotation Yrotation Zrotation
						End Site
						{
							OFFSET 0 0 0
						}
					}
				}
			}
		}
	}
	JOINT RightUpLeg_virtual
	{
		OFFSET 0.000000 0.000000 0.000000
		CHANNELS 3 Xrotation Yrotation Zrotation
		JOINT RightUpLeg
		{
			OFFSET -8.479700 -4.795502 -0.379100
			CHANNELS 3 Xrotation Yrotation Zrotation
			JOINT RightLeg
			{
				OFFSET -0.023144 -32.555092 0.112900
				CHANNELS 3 Xrotation Yrotation Zrotation
				JOINT RightFoot
				{
					OFFSET 0.023144 -32.638641 -3.012700
					CHANNELS 3 Xrotation Yrotation Zrotation
					JOINT RightToeBase
					{
						OFFSET -0.970200 -13.225400 11.864200
						CHANNELS 3 Xrotation Yrotation Zrotation
						End Site
						{
							OFFSET 0 0 0
						}
					}
				}
			}
		}
	}
	JOINT Hips_virtual
	{
		OFFSET 0.000000 0.000000 0.000000
		CHANNELS 3 Xrotation Yrotation Zrotation
		JOINT Hips
		{
			OFFSET -0.000000 -0.000000 -0.000000
			CHANNELS 3 Xrotation Yrotation Zrotation
			JOINT Spine
			{
				OFFSET 0.000000 7.722000 1.166200
				CHANNELS 3 Xrotation Yrotation Zrotation
				JOINT Spine1
				{
					OFFSET 0.000000 12.024101 0.248800
					CHANNELS 3 Xrotation Yrotation Zrotation
					JOINT Spine2
					{
						OFFSET 0.000000 11.502998 -0.491200
						CHANNELS 3 Xrotation Yrotation Zrotation
						JOINT Neck_virtual
						{
							OFFSET 0.000000 0.000000 0.000000
							CHANNELS 3 Xrotation Yrotation Zrotation
							JOINT Neck
							{
								OFFSET 0.000000 18.430702 -3.123100
								CHANNELS 3 Xrotation Yrotation Zrotation
								JOINT Head
								{
									OFFSET 0.000000 9.051102 1.034000
									CHANNELS 3 Xrotation Yrotation Zrotation
									End Site
									{
										OFFSET 0 0 0
									}
								}
							}
						}
						JOINT LeftShoulder_virtual
						{
							OFFSET 0.000000 0.000000 0.000000
							CHANNELS 3 Xrotation Yrotation Zrotation
							JOINT LeftShoulder
							{
								OFFSET 6.197800 13.665199 -4.064700
								CHANNELS 3 Xrotation Yrotation Zrotation
								JOINT LeftArm
								{
									OFFSET 7.778100 -0.187103 -1.709300
									CHANNELS 3 Xrotation Yrotation Zrotation
									JOINT LeftForeArm
									{
										OFFSET 22.049376 0.000000 0.000000
										CHANNELS 3 Xrotation Yrotation Zrotation
										JOINT LeftHand
										{
											OFFSET 23.009392 0.000000 0.000000
											CHANNELS 3 Xrotation Yrotation Zrotation
											End Site
											{
												OFFSET 0 0 0
											}
										}
									}
								}
							}
						}
						JOINT RightShoulder_virtual
						{
							OFFSET 0.000000 0.000000 0.000000
							CHANNELS 3 Xrotation Yrotation Zrotation
							JOINT RightShoulder
							{
								OFFSET -6.197800 13.665199 -4.064700
								CHANNELS 3 Xrotation Yrotation Zrotation
								JOINT RightArm
								{
									OFFSET -7.778100 -0.187103 -1.709300
									CHANNELS 3 Xrotation Yrotation Zrotation
									JOINT RightForeArm
									{
										OFFSET -22.049376 0.000000 0.000000
										CHANNELS 3 Xrotation Yrotation Zrotation
										JOINT RightHand
										{
											OFFSET -23.009392 0.000000 0.000000
											CHANNELS 3 Xrotation Yrotation Zrotation
											End Site
											{
												OFFSET 0 0 0
											}
										}
									}
								}
							}
						}
					}
				}
			}
		}
	}
}
MOTION
Frames: 9
Frame Time: 0.03333333
-9.900833 79.627258 -1.145203 0.000000 0.000000 0.000000 -167.433400 -49.238506 -162.604142 -103.350570 -20.686731 0.125964 87.862713 -11.545245 -32.887050 37.278746 -11.871720 -25.227613 0.000000 0.000000 0.000000 -167.433400 -49.238506 -162.604142 -15.375314 31.635589 -6.003058 26.822469 18.957835 -3.684784 -7.980313 9.664372 11.996442 0.000000 0.000000 0.000000 -167.433400 -49.238506 -162.604142 0.000000 0.000000 0.000000 17.503825 1.254730 -1.105867 8.584646 -0.768854 -1.067724 0.000000 0.000000 0.000000 8.613864 -0.684843 -1.055479 6.128101 42.115230 2.848585 0.000000 0.000000 0.000000 8.613864 -0.684843 -1.055479 -2.314302 -19.181519 9.645828 -51.327331 -47.749511 -40.680610 -98.688707 -30.890541 -92.924792 0.000000 0.000000 0.000000 8.613864 -0.684843 -1.055479 -5.432983 22.644171 5.004594 -52.631662 7.939689 23.713467 118.664155 44.432710 -113.869273 0.000000 0.000000 0.000000 
-10.289753 79.713547 -0.980572 0.000000 0.000000 0.000000 -167.120946 -47.212747 -162.130960 -105.397940 -20.609580 0.795002 86.955412 -12.231370 -33.388594 36.852002 -12.260012 -26.837697 0.000000 0.000000 0.000000 -167.120946 -47.212747 -162.130960 -14.287852 33.045029 -6.400957 26.343106 19.454185 -3.645683 -8.029032 9.713704 12.200471 0.000000 0.000000 0.000000 -167.120946 -47.212747 -162.130960 -0.000001 -0.000003 -0.000001 17.882004 1.306372 -1.325479 8.889999 -0.672197 -1.209733 0.000000 0.000000 0.000000 8.918210 -0.587176 -1.199351 6.896477 42.518156 2.371671 0.000000 0.000000 0.000000 8.918210 -0.587176 -1.199351 -2.111843 -18.783218 11.594750 -57.541352 -46.188721 -44.501968 -98.771796 -32.145647 -92.712435 0.000000 0.000000 0.000000 8.918210 -0.587176 -1.199351 -4.710944 23.091015 2.504142 -57.009096 7.316071 23.385403 120.495301 44.831364 -115.618314 0.000000 0.000000 0.000000 
-10.684860 79.792519 -0.836189 0.000000 0.000000 0.000000 -166.772374 -45.388861 -161.610335 -107.266413 -20.504216 1.348888 86.066312 -13.165107 -33.809682 36.092413 -12.544914 -28.526709 0.000000 0.000000 0.000000 -166.772374 -45.388861 -161.610335 -13.158616 34.350821 -6.867718 25.985199 19.875693 -3.647102 -8.158012 9.725225 12.394325 0.000000 0.000000 0.000000 -166.772374 -45.388861 -161.610335 -0.000000 -0.000002 -0.000001 18.237703 1.348541 -1.540024 9.182359 -0.573628 -1.355681 0.000000 0.000000 0.000000 9.209422 -0.487400 -1.347777 7.658639 42.872527 1.900499 0.000000 0.000000 0.000000 9.209422 -0.487400 -1.347777 -1.708637 -18.296963 14.299376 -63.045207 -44.076672 -47.688671 -98.832748 -33.423210 -92.650171 0.000000 0.000000 0.000000 9.209422 -0.487400 -1.347777 -3.961793 23.402294 0.011316 -60.996738 6.507660 22.843742 122.036137 45.207031 -117.083253 0.000000 0.000000 0.000000 
-11.206204 79.859024 -0.730932 0.000000 0.000000 0.000000 -166.422559 -43.772886 -161.056516 -109.087253 -20.231606 1.631450 85.440967 -13.980557 -34.035755 35.707864 -12.861434 -30.222563 0.000000 0.000000 0.000000 -166.422559 -43.772886 -161.056516 -11.965737 35.547265 -7.438266 25.905188 20.234060 -3.706160 -8.531767 9.688731 12.533058 0.000000 0.000000 0.000000 -166.422559 -43.772886 -161.056516 0.000000 0.000001 0.000000 18.566560 1.396543 -1.739379 9.456796 -0.479588 -1.500250 0.000000 0.000000 0.000000 9.482781 -0.391717 -1.495375 8.404169 43.182461 1.436507 0.000000 0.000000 0.000000 9.482781 -0.391717 -1.495375 -1.353460 -17.783130 16.989122 -68.037673 -42.061842 -50.427297 -98.809273 -34.501867 -92.534925 0.000000 0.000000 0.000000 9.482781 -0.391717 -1.495375 -3.221331 23.818379 -2.377801 -64.631000 5.220869 21.642979 123.514969 45.342050 -118.648446 0.000000 0.000000 0.000000 
-11.696949 79.905304 -0.661612 0.000000 0.000000 0.000000 -166.222899 -42.398396 -160.503940 -110.455545 -20.210388 2.002647 84.890652 -14.547412 -34.515173 35.517001 -13.277539 -31.923894 0.000000 0.000000 0.000000 -166.222899 -42.398396 -160.503940 -10.939121 36.677324 -8.088339 26.072166 20.512784 -3.794528 -9.004705 9.613476 12.637497 0.000000 0.000000 0.000000 -166.222899 -42.398396 -160.503940 -0.000000 0.000001 0.000001 18.865857 1.444843 -1.916412 9.708554 -0.395323 -1.638886 0.000000 0.000000 0.000000 9.733539 -0.305664 -1.637464 9.130961 43.449545 0.981554 0.000000 0.000000 0.000000 9.733539 -0.305664 -1.637464 -1.028374 -17.270456 19.673110 -72.249475 -40.023683 -52.614088 -98.694608 -35.618494 -92.434002 0.000000 0.000000 0.000000 9.733539 -0.305664 -1.637464 -2.525912 24.010060 -4.580760 -68.052289 4.123809 20.350883 124.815369 45.407798 -120.114614 0.000000 0.000000 0.000000 
-12.158808 79.938324 -0.621199 0.000000 0.000000 0.000000 -166.004988 -41.273402 -159.946611 -111.580231 -20.105360 2.220638 84.394138 -14.952403 -34.745394 35.594168 -13.784666 -33.899428 0.000000 0.000000 0.000000 -166.004988 -41.273402 -159.946611 -9.953735 37.679370 -8.737515 26.342733 20.703801 -3.869831 -9.515679 9.497370 12.692416 0.000000 0.000000 0.000000 -166.004988 -41.273402 -159.946611 0.000001 0.000005 0.000001 19.132198 1.497112 -2.071159 9.933199 -0.325226 -1.768041 0.000000 0.000000 0.000000 9.957230 -0.233585 -1.770326 9.833678 43.677598 0.537302 0.000000 0.000000 0.000000 9.957230 -0.233585 -1.770326 -0.742037 -16.787162 22.251621 -75.743574 -38.159348 -54.347067 -98.406381 -36.692637 -92.166757 0.000000 0.000000 0.000000 9.957230 -0.233585 -1.770326 -1.879490 24.223201 -6.585935 -71.028114 2.819983 18.703730 126.110577 45.456965 -121.669411 0.000000 0.000000 0.000000 
-12.582746 79.960098 -0.607107 0.000000 0.000000 0.000000 -165.855530 -40.391416 -159.406821 -112.587950 -19.809393 2.215694 83.361817 -16.073247 -34.826281 35.097501 -14.225399 -36.532810 0.000000 0.000000 0.000000 -165.855530 -40.391416 -159.406821 -9.074485 38.566513 -9.409534 26.714721 20.821196 -3.935245 -10.052532 9.353415 12.707809 0.000000 0.000000 0.000000 -165.855530 -40.391416 -159.406821 -0.000001 0.000003 0.000000 19.362639 1.549160 -2.206312 10.126824 -0.273164 -1.885043 0.000000 0.000000 0.000000 10.150080 -0.179302 -1.891159 10.501507 43.870343 0.106258 0.000000 0.000000 0.000000 10.150080 -0.179302 -1.891159 -0.494129 -16.339071 24.689870 -78.602165 -36.343320 -55.543556 -98.313866 -37.504576 -92.293983 0.000000 0.000000 0.000000 10.150080 -0.179302 -1.891159 -1.304844 24.365400 -8.345093 -73.690467 1.532238 16.866807 127.395022 45.463191 -123.298329 0.000000 0.000000 0.000000 
-12.938412 79.974228 -0.581491 0.000000 0.000000 0.000000 -165.716727 -39.748511 -158.885814 -113.296651 -19.702717 2.308412 82.723734 -16.693505 -35.081218 34.872941 -14.522198 -38.040616 0.000000 0.000000 0.000000 -165.716727 -39.748511 -158.885814 -8.259687 39.315969 -10.097700 27.052964 20.864703 -3.971049 -10.534247 9.194628 12.726166 0.000000 0.000000 0.000000 -165.716727 -39.748511 -158.885814 0.000001 0.000001 -0.000000 19.555757 1.575188 -2.323377 10.286308 -0.241464 -1.988256 0.000000 0.000000 0.000000 10.309032 -0.145405 -1.998012 11.134269 44.029776 -0.310288 0.000000 0.000000 0.000000 10.309032 -0.145405 -1.998012 -0.283486 -15.940512 26.940105 -80.948889 -34.806825 -56.469754 -98.125414 -38.343750 -92.374422 0.000000 0.000000 0.000000 10.309032 -0.145405 -1.998012 -0.814663 24.452904 -9.837937 -76.008305 0.252019 14.905332 128.587067 45.476953 -124.865953 0.000000 0.000000 0.000000 
-13.238811 79.976547 -0.545637 0.000000 0.000000 0.000000 -165.605204 -39.322929 -158.410788 -113.790631 -19.597845 2.339429 82.928523 -16.404103 -34.863055 35.114371 -14.859449 -39.129003 0.000000 0.000000 0.000000 -165.605204 -39.322929 -158.410788 -7.553574 39.923108 -10.765497 27.382266 20.854576 -3.981015 -10.978615 9.031958 12.741300 0.000000 0.000000 0.000000 -165.605204 -39.322929 -158.410788 -0.000001 -0.000000 0.000001 19.710302 1.584532 -2.417340 10.409522 -0.230720 -2.077222 0.000000 0.000000 0.000000 10.431930 -0.132444 -2.090163 11.720164 44.159331 -0.709770 0.000000 0.000000 0.000000 10.431930 -0.132444 -2.090163 -0.096166 -15.603058 28.986353 -83.036864 -33.483653 -57.132337 -97.890121 -39.132059 -92.448482 0.000000 0.000000 0.000000 10.431930 -0.132444 -2.090163 -0.405613 24.498627 -11.080960 -78.007071 -1.047415 12.865513 129.695061 45.483650 -126.366505 0.000000 0.000000 0.000000 
